<svg width="36" height="36" viewBox="0 0 36 36" fill="none" xmlns="http://www.w3.org/2000/svg">
<path d="M33.3503 24.4833C32.29 26.9908 30.6317 29.2004 28.5201 30.9188C26.4086 32.6373 23.9083 33.8124 21.2377 34.3413C18.5672 34.8702 15.8077 34.7369 13.2006 33.953C10.5935 33.1691 8.21806 31.7584 6.28205 29.8444C4.34604 27.9304 2.90837 25.5712 2.09474 22.9732C1.28111 20.3752 1.11628 17.6175 1.61468 14.941C2.11307 12.2646 3.25951 9.75103 4.95376 7.62004C6.64801 5.48904 8.83848 3.80552 11.3337 2.71665M33.0003 18C33.9203 18 34.6753 17.2517 34.5837 16.3367C34.1994 12.5103 32.5038 8.93449 29.7842 6.21553C27.0646 3.49656 23.4885 1.80171 19.662 1.41832C18.7453 1.32666 17.9987 2.08165 17.9987 3.00165V16.335C17.9987 16.777 18.1743 17.2009 18.4868 17.5135C18.7994 17.8261 19.2233 18.0017 19.6653 18.0017L33.0003 18Z" stroke="#D9D9D9" stroke-width="2" stroke-linecap="round" stroke-linejoin="round"/>
</svg>
