<svg width="36" height="36" viewBox="0 0 36 36" fill="none" xmlns="http://www.w3.org/2000/svg">
<path d="M20.333 1.33338H7.99967C7.11562 1.33338 6.26777 1.68457 5.64265 2.30969C5.01753 2.93481 4.66634 3.78266 4.66634 4.66671V31.3334C4.66634 32.2174 5.01753 33.0653 5.64265 33.6904C6.26777 34.3155 7.11562 34.6667 7.99967 34.6667H27.9997C28.8837 34.6667 29.7316 34.3155 30.3567 33.6904C30.9818 33.0653 31.333 32.2174 31.333 31.3334V19M1.33301 8.00004H7.99967M1.33301 14.6667H7.99967M1.33301 21.3334H7.99967M1.33301 28H7.99967M33.6297 7.37671C34.2936 6.71279 34.6666 5.81231 34.6666 4.87338C34.6666 3.93445 34.2936 3.03397 33.6297 2.37004C32.9657 1.70612 32.0653 1.33313 31.1263 1.33313C30.1874 1.33313 29.2869 1.70612 28.623 2.37004L20.273 10.7234C19.8768 11.1194 19.5867 11.6089 19.4297 12.1467L18.0347 16.93C17.9928 17.0735 17.9903 17.2255 18.0274 17.3702C18.0645 17.5149 18.1398 17.647 18.2454 17.7526C18.3511 17.8583 18.4831 17.9336 18.6279 17.9706C18.7726 18.0077 18.9246 18.0052 19.068 17.9634L23.8513 16.5684C24.3891 16.4113 24.8786 16.1213 25.2747 15.725L33.6297 7.37671Z" stroke="#D9D9D9" stroke-width="2" stroke-linecap="round" stroke-linejoin="round"/>
</svg>
